<?xml version="1.0" encoding="UTF-8"?>
<!DOCTYPE svg PUBLIC "-//W3C//DTD SVG 1.1//EN" "http://www.w3.org/Graphics/SVG/1.1/DTD/svg11.dtd">
<!-- Creator: CorelDRAW -->
<svg
  xmlns="http://www.w3.org/2000/svg"
  xml:space="preserve"
  width="492px"
  height="512px"
  version="1.1"
  shape-rendering="geometricPrecision"
  text-rendering="geometricPrecision"
  image-rendering="optimizeQuality"
  fill-rule="evenodd"
  clip-rule="evenodd"
  viewBox="0 0 492 512.324"
  xmlns:xlink="http://www.w3.org/1999/xlink"
  xmlns:xodm="http://www.corel.com/coreldraw/odm/2003"
>
  <g id="Layer_x0020_1">
    <metadata id="CorelCorpID_0Corel-Layer" />
    <circle fill="#39BF46" cx="231.181" cy="231.181" r="231.181" />
    <!-- <path
      fill="#44944D"
      d="M437.687 127.171c33.913,40.723 54.313,93.088 54.313,150.225 0,129.746 -105.183,234.928 -234.928,234.928 -103.431,0 -191.249,-66.843 -222.619,-159.684 40.74,65.851 113.605,109.722 196.728,109.722 127.682,0 231.181,-103.499 231.181,-231.181 0,-37.412 -8.899,-72.749 -24.675,-104.01z"
    /> -->
    <path
      fill="white"
      d="M125.482 131.198l-3.38 73.915 73.958 -3.379 -21.222 -21.202c-1.71,-1.699 -1.71,-4.477 -0.011,-6.187 6.918,-6.202 13.244,-11.02 21.703,-14.961 20.073,-9.342 43.18,-9.851 63.62,-1.39 19.364,8.033 34.826,23.484 42.86,42.849 7.987,19.292 7.976,41.274 0,60.568 -8.021,19.376 -23.48,34.823 -42.849,42.858 -31.343,12.973 -67.684,4.463 -90.038,-21.263 -6.84,-7.865 -12.166,-17.151 -15.482,-27.305l-37.397 0.051c3.056,14.22 8.799,27.515 16.859,39.585 10.539,15.708 24.86,28.683 41.606,37.625 30.275,16.148 66.62,17.842 98.276,4.766 42.816,-17.781 71.137,-59.58 71.137,-106.504 0,-30.756 -11.983,-59.835 -33.749,-81.583 -10.592,-10.61 -23.296,-19.169 -37.368,-25.004 -14.038,-5.812 -28.966,-8.715 -44.153,-8.715 -30.206,0 -59.016,11.786 -80.568,32.901 -1.71,1.679 -4.466,1.668 -6.154,-0.02l-17.648 -17.605z"
    />
  </g>
</svg>
